<svg width="250" height="70" viewBox="0 0 250 70" fill="none" xmlns="http://www.w3.org/2000/svg">
<path d="M0 29.7826C0 23.8275 4.82754 19 10.7826 19H43.1287L25.912 40.5652H10.7826C4.82755 40.5652 0 35.7377 0 29.7826Z" fill="url(#paint0_linear_98_832)"/>
<path d="M66 40.2174C66 34.2624 61.1725 29.4348 55.2174 29.4348H40.1881L22.8713 51H55.2174C61.1724 51 66 46.1725 66 40.2174Z" fill="white"/>
<ellipse cx="58.8119" cy="39.8696" rx="3.26733" ry="3.47826" fill="#FF725E"/>
<path d="M97.216 59.84C93.312 59.84 89.92 58.976 87.04 57.248C84.16 55.552 81.936 53.152 80.368 50.048C78.8 46.944 78.016 43.28 78.016 39.056C78.016 37.456 78.208 35.68 78.592 33.728C79.008 31.744 79.664 29.776 80.56 27.824C81.456 25.84 82.656 24.032 84.16 22.4C85.664 20.768 87.504 19.456 89.68 18.464C91.856 17.44 94.416 16.928 97.36 16.928C99.888 16.928 102.096 17.248 103.984 17.888C105.872 18.496 107.504 19.28 108.88 20.24C110.256 21.168 111.392 22.144 112.288 23.168C113.216 24.192 113.952 25.136 114.496 26C115.04 26.832 115.44 27.44 115.696 27.824L108.736 33.152C108.032 31.84 107.2 30.56 106.24 29.312C105.28 28.032 104.096 26.976 102.688 26.144C101.28 25.312 99.536 24.896 97.456 24.896C95.312 24.896 93.536 25.376 92.128 26.336C90.72 27.296 89.6 28.512 88.768 29.984C87.968 31.456 87.408 33.024 87.088 34.688C86.768 36.32 86.608 37.84 86.608 39.248C86.608 40.752 86.768 42.24 87.088 43.712C87.408 45.184 87.952 46.528 88.72 47.744C89.52 48.96 90.576 49.936 91.888 50.672C93.232 51.376 94.912 51.728 96.928 51.728C99.168 51.728 100.992 51.328 102.4 50.528C103.84 49.728 105.04 48.608 106 47.168C106.96 45.696 107.856 43.984 108.688 42.032L116.56 45.584C115.152 48.496 113.568 51.024 111.808 53.168C110.048 55.312 107.984 56.96 105.616 58.112C103.248 59.264 100.448 59.84 97.216 59.84ZM141.357 59.216C138.349 59.216 135.613 58.656 133.149 57.536C130.685 56.448 128.557 54.928 126.765 52.976C124.973 51.024 123.597 48.8 122.637 46.304C121.677 43.808 121.197 41.168 121.197 38.384C121.197 35.824 121.581 33.312 122.349 30.848C123.117 28.352 124.285 26.096 125.853 24.08C127.421 22.032 129.405 20.4 131.805 19.184C134.237 17.968 137.101 17.36 140.397 17.36C143.821 17.36 146.797 17.952 149.325 19.136C151.853 20.288 153.933 21.84 155.565 23.792C157.197 25.744 158.413 27.952 159.213 30.416C160.013 32.88 160.413 35.408 160.413 38C160.413 41.104 159.949 43.952 159.021 46.544C158.093 49.136 156.781 51.392 155.085 53.312C153.389 55.2 151.373 56.656 149.037 57.68C146.701 58.704 144.141 59.216 141.357 59.216ZM141.357 51.2C143.277 51.2 145.053 50.736 146.685 49.808C148.317 48.848 149.629 47.36 150.621 45.344C151.613 43.328 152.109 40.704 152.109 37.472C152.109 34.688 151.565 32.4 150.477 30.608C149.389 28.816 147.981 27.488 146.253 26.624C144.525 25.76 142.717 25.328 140.829 25.328C138.685 25.328 136.877 25.712 135.405 26.48C133.933 27.248 132.749 28.288 131.853 29.6C130.957 30.88 130.317 32.32 129.933 33.92C129.549 35.52 129.357 37.168 129.357 38.864C129.357 40.528 129.677 42.112 130.317 43.616C130.957 45.088 131.821 46.4 132.909 47.552C134.029 48.672 135.309 49.568 136.749 50.24C138.189 50.88 139.725 51.2 141.357 51.2ZM184.029 59.84C180.125 59.84 176.733 58.976 173.853 57.248C170.973 55.552 168.749 53.152 167.181 50.048C165.613 46.944 164.829 43.28 164.829 39.056C164.829 37.456 165.021 35.68 165.405 33.728C165.821 31.744 166.477 29.776 167.373 27.824C168.269 25.84 169.469 24.032 170.973 22.4C172.477 20.768 174.317 19.456 176.493 18.464C178.669 17.44 181.229 16.928 184.173 16.928C186.701 16.928 188.909 17.248 190.797 17.888C192.685 18.496 194.317 19.28 195.693 20.24C197.069 21.168 198.205 22.144 199.101 23.168C200.029 24.192 200.765 25.136 201.309 26C201.853 26.832 202.253 27.44 202.509 27.824L195.549 33.152C194.845 31.84 194.013 30.56 193.053 29.312C192.093 28.032 190.909 26.976 189.501 26.144C188.093 25.312 186.349 24.896 184.269 24.896C182.125 24.896 180.349 25.376 178.941 26.336C177.533 27.296 176.413 28.512 175.581 29.984C174.781 31.456 174.221 33.024 173.901 34.688C173.581 36.32 173.421 37.84 173.421 39.248C173.421 40.752 173.581 42.24 173.901 43.712C174.221 45.184 174.765 46.528 175.533 47.744C176.333 48.96 177.389 49.936 178.701 50.672C180.045 51.376 181.725 51.728 183.741 51.728C185.981 51.728 187.805 51.328 189.213 50.528C190.653 49.728 191.853 48.608 192.812 47.168C193.773 45.696 194.669 43.984 195.501 42.032L203.373 45.584C201.965 48.496 200.381 51.024 198.621 53.168C196.861 55.312 194.797 56.96 192.429 58.112C190.061 59.264 187.261 59.84 184.029 59.84ZM228.169 59.216C225.161 59.216 222.425 58.656 219.961 57.536C217.497 56.448 215.369 54.928 213.577 52.976C211.785 51.024 210.409 48.8 209.449 46.304C208.489 43.808 208.009 41.168 208.009 38.384C208.009 35.824 208.393 33.312 209.161 30.848C209.929 28.352 211.097 26.096 212.665 24.08C214.233 22.032 216.217 20.4 218.617 19.184C221.049 17.968 223.913 17.36 227.209 17.36C230.633 17.36 233.609 17.952 236.137 19.136C238.665 20.288 240.745 21.84 242.377 23.792C244.009 25.744 245.225 27.952 246.025 30.416C246.825 32.88 247.225 35.408 247.225 38C247.225 41.104 246.761 43.952 245.833 46.544C244.905 49.136 243.593 51.392 241.897 53.312C240.201 55.2 238.185 56.656 235.849 57.68C233.513 58.704 230.953 59.216 228.169 59.216ZM228.169 51.2C230.089 51.2 231.865 50.736 233.497 49.808C235.129 48.848 236.441 47.36 237.433 45.344C238.425 43.328 238.921 40.704 238.921 37.472C238.921 34.688 238.377 32.4 237.289 30.608C236.201 28.816 234.793 27.488 233.065 26.624C231.337 25.76 229.529 25.328 227.641 25.328C225.497 25.328 223.689 25.712 222.217 26.48C220.745 27.248 219.561 28.288 218.665 29.6C217.769 30.88 217.129 32.32 216.745 33.92C216.361 35.52 216.169 37.168 216.169 38.864C216.169 40.528 216.489 42.112 217.129 43.616C217.769 45.088 218.633 46.4 219.721 47.552C220.841 48.672 222.121 49.568 223.561 50.24C225.001 50.88 226.537 51.2 228.169 51.2Z" fill="white"/>
<defs>
<linearGradient id="paint0_linear_98_832" x1="15.75" y1="38.8095" x2="-0.222926" y2="24.5836" gradientUnits="userSpaceOnUse">
<stop stop-color="white"/>
<stop offset="1" stop-color="#FF725E"/>
</linearGradient>
</defs>
</svg>
