<svg width="22" height="15" viewBox="0 0 22 15" fill="none" xmlns="http://www.w3.org/2000/svg">
<path d="M17.0981 5.36227C15.862 3.55652 14.1621 2.02994 12.1344 0.904587C11.2206 0.395784 10.179 0.0912359 9.10044 0.0175339C8.02188 -0.0561682 6.93918 0.103216 5.94687 0.481771C5.07891 0.841469 4.32365 1.38139 3.74631 2.0549C3.16897 2.7284 2.78691 3.51526 2.63313 4.34752C2.57813 4.64349 2.53 4.95154 2.48875 5.19315H1.80125C1.56569 5.19075 1.33192 5.22945 1.1135 5.30699C0.895077 5.38454 0.696341 5.49939 0.528804 5.6449C0.361267 5.79041 0.228259 5.96368 0.137488 6.15467C0.0467158 6.34567 -1.58e-05 6.55059 4.00719e-09 6.75757V11.922C4.00719e-09 12.0597 0.0622923 12.1919 0.173173 12.2893C0.284054 12.3867 0.434441 12.4414 0.59125 12.4414H1.78063V12.2059C1.77887 11.6466 1.93034 11.0951 2.22224 10.5981C2.51413 10.1011 2.93789 9.67309 3.45771 9.35026C3.97753 9.02743 4.57815 8.81925 5.20883 8.7433C5.83951 8.66736 6.48173 8.72588 7.08125 8.91393L6.39375 9.51795C5.84474 9.42923 5.27872 9.47091 4.75418 9.63869C4.22963 9.80646 3.76559 10.0942 3.41 10.4723C3.22666 10.6339 3.07971 10.8245 2.97688 11.034C2.76533 11.3937 2.6479 11.7903 2.63317 12.195C2.61843 12.5996 2.70675 13.002 2.89169 13.3728C3.07663 13.7436 3.35351 14.0734 3.7021 14.3382C4.05069 14.6029 4.4622 14.7959 4.90656 14.9031C5.35091 15.0102 5.8169 15.0288 6.27048 14.9575C6.72406 14.8861 7.15377 14.7267 7.52823 14.4908C7.90269 14.2548 8.21243 13.9484 8.43484 13.5938C8.65725 13.2393 8.78671 12.8456 8.81375 12.4414H12.5812V12.2059C12.5799 11.6473 12.7313 11.0966 13.0229 10.6003C13.3144 10.1039 13.7374 9.67634 14.2564 9.35364C14.7753 9.03095 15.3749 8.82256 16.0046 8.74604C16.6344 8.66951 17.2759 8.7271 17.875 8.91393L17.1875 9.51795C16.6385 9.42923 16.0725 9.47091 15.5479 9.63869C15.0234 9.80646 14.5593 10.0942 14.2037 10.4723C14.0204 10.6339 13.8735 10.8245 13.7706 11.034C13.562 11.3937 13.4471 11.7896 13.4343 12.1931C13.4216 12.5965 13.5113 12.9975 13.6969 13.3667C13.8825 13.7359 14.1594 14.0642 14.5074 14.3277C14.8555 14.5912 15.2659 14.7832 15.709 14.8899C16.1521 14.9966 16.6167 15.0153 17.069 14.9446C17.5213 14.8739 17.95 14.7155 18.324 14.4811C18.6979 14.2466 19.0078 13.9419 19.231 13.5891C19.4542 13.2363 19.5852 12.8442 19.6144 12.4414H21.4087C21.5656 12.4414 21.7159 12.3867 21.8268 12.2893C21.9377 12.1919 22 12.0597 22 11.922V10.8468C21.9948 9.58357 21.5097 8.35802 20.6218 7.36449C19.7338 6.37095 18.4937 5.6663 17.0981 5.36227ZM6.875 5.19315H4.125C4.125 4.98174 4.19375 4.76429 4.235 4.54684C4.35049 3.88649 4.6553 3.26281 5.12075 2.73447C5.58619 2.20614 6.19697 1.79052 6.89562 1.52673L6.875 5.19315ZM5.7475 13.8669C5.40756 13.8669 5.07526 13.7784 4.79261 13.6124C4.50997 13.4465 4.28967 13.2107 4.15958 12.9347C4.02949 12.6588 3.99546 12.3552 4.06178 12.0623C4.12809 11.7693 4.29179 11.5003 4.53216 11.2891C4.77253 11.0779 5.07878 10.9341 5.41219 10.8758C5.74559 10.8176 6.09118 10.8475 6.40524 10.9617C6.7193 11.076 6.98773 11.2696 7.17659 11.5179C7.36545 11.7662 7.46625 12.0582 7.46625 12.3569C7.46625 12.7573 7.28517 13.1414 6.96284 13.4246C6.64051 13.7078 6.20334 13.8669 5.7475 13.8669ZM11.6875 8.21326H9.625V7.00522H11.6875V8.21326ZM7.5625 5.19315V1.24888C8.85427 1.0944 10.167 1.34001 11.275 1.94351C12.7975 2.78434 14.1077 3.89029 15.125 5.19315H7.5625ZM16.5413 13.8669C16.2013 13.8669 15.869 13.7784 15.5864 13.6124C15.3037 13.4465 15.0834 13.2107 14.9533 12.9347C14.8232 12.6588 14.7892 12.3552 14.8555 12.0623C14.9218 11.7693 15.0855 11.5003 15.3259 11.2891C15.5663 11.0779 15.8725 10.9341 16.2059 10.8758C16.5393 10.8176 16.8849 10.8475 17.199 10.9617C17.513 11.076 17.7815 11.2696 17.9703 11.5179C18.1592 11.7662 18.26 12.0582 18.26 12.3569C18.26 12.7573 18.0789 13.1414 17.7566 13.4246C17.4343 13.7078 16.9971 13.8669 16.5413 13.8669Z" fill="#FF725E"/>
</svg>
