<svg width="40" height="40" viewBox="0 0 40 40" fill="none" xmlns="http://www.w3.org/2000/svg">
<rect width="40" height="40" rx="20" transform="matrix(-1 0 0 1 40 0)" fill="#FF725E"/>
<path d="M28.5384 17.7922C26.909 15.5049 24.6682 13.5713 21.9953 12.1458C20.7908 11.5013 19.4178 11.1156 17.996 11.0222C16.5743 10.9289 15.1471 11.1307 13.8391 11.6102C12.6949 12.0659 11.6994 12.7498 10.9383 13.6029C10.1773 14.456 9.67366 15.4527 9.47094 16.5069C9.39844 16.8818 9.335 17.2719 9.28062 17.578H8.37437C8.06386 17.575 7.75571 17.624 7.46779 17.7222C7.17987 17.8204 6.9179 17.9659 6.69706 18.1502C6.47622 18.3345 6.30089 18.554 6.18123 18.7959C6.06158 19.0378 5.99998 19.2974 6 19.5596V26.1011C6 26.2757 6.08211 26.443 6.22827 26.5664C6.37443 26.6898 6.57267 26.7591 6.77937 26.7591H8.34719V26.4607C8.34487 25.7523 8.54453 25.0538 8.92931 24.4243C9.31409 23.7947 9.87267 23.2526 10.5579 22.8437C11.2431 22.4347 12.0348 22.171 12.8662 22.0749C13.6975 21.9787 14.5441 22.0528 15.3344 22.291L14.4281 23.0561C13.7044 22.9437 12.9583 22.9965 12.2669 23.209C11.5754 23.4215 10.9637 23.786 10.495 24.2649C10.2533 24.4696 10.0596 24.711 9.92406 24.9765C9.64521 25.432 9.49042 25.9344 9.47099 26.447C9.45156 26.9595 9.56799 27.4692 9.81177 27.9389C10.0556 28.4086 10.4205 28.8263 10.88 29.1617C11.3396 29.4971 11.882 29.7415 12.4677 29.8772C13.0535 30.0129 13.6677 30.0365 14.2656 29.9461C14.8635 29.8558 15.43 29.6538 15.9236 29.355C16.4172 29.0561 16.8255 28.668 17.1187 28.2189C17.4118 27.7698 17.5825 27.271 17.6181 26.7591H22.5844V26.4607C22.5826 25.7532 22.7822 25.0557 23.1665 24.427C23.5508 23.7982 24.1084 23.2567 24.7925 22.8479C25.4765 22.4392 26.2669 22.1752 27.097 22.0783C27.9272 21.9814 28.7727 22.0543 29.5625 22.291L28.6562 23.0561C27.9326 22.9437 27.1864 22.9965 26.495 23.209C25.8036 23.4215 25.1919 23.786 24.7231 24.2649C24.4814 24.4696 24.2877 24.711 24.1522 24.9765C23.8771 25.432 23.7257 25.9335 23.7089 26.4445C23.6921 26.9556 23.8103 27.4635 24.055 27.9311C24.2996 28.3988 24.6646 28.8147 25.1234 29.1484C25.5822 29.4821 26.1233 29.7254 26.7073 29.8606C27.2914 29.9957 27.9038 30.0194 28.5 29.9298C29.0962 29.8402 29.6614 29.6397 30.1543 29.3427C30.6473 29.0457 31.0557 28.6597 31.3499 28.2128C31.6442 27.766 31.8168 27.2694 31.8553 26.7591H34.2206C34.4273 26.7591 34.6256 26.6898 34.7717 26.5664C34.9179 26.443 35 26.2757 35 26.1011V24.7393C34.9931 23.1392 34.3538 21.5868 33.1832 20.3284C32.0127 19.0699 30.378 18.1773 28.5384 17.7922ZM15.0625 17.578H11.4375C11.4375 17.3102 11.5281 17.0348 11.5825 16.7593C11.7347 15.9229 12.1365 15.1329 12.7501 14.4637C13.3636 13.7944 14.1687 13.268 15.0897 12.9339L15.0625 17.578ZM13.5762 28.5648C13.1282 28.5648 12.6901 28.4526 12.3175 28.2424C11.945 28.0322 11.6546 27.7335 11.4831 27.384C11.3116 27.0345 11.2667 26.6499 11.3542 26.2789C11.4416 25.9078 11.6574 25.567 11.9742 25.2995C12.2911 25.032 12.6948 24.8498 13.1342 24.776C13.5737 24.7022 14.0293 24.7401 14.4433 24.8849C14.8573 25.0296 15.2111 25.2748 15.46 25.5894C15.709 25.9039 15.8419 26.2737 15.8419 26.652C15.8419 27.1593 15.6032 27.6458 15.1783 28.0045C14.7534 28.3632 14.1771 28.5648 13.5762 28.5648ZM21.4062 21.4035H18.6875V19.8733H21.4062V21.4035ZM15.9688 17.578V12.5819C17.6715 12.3862 19.4019 12.6973 20.8625 13.4618C22.8694 14.5268 24.5966 15.9277 25.9375 17.578H15.9688ZM27.8044 28.5648C27.3563 28.5648 26.9182 28.4526 26.5457 28.2424C26.1731 28.0322 25.8827 27.7335 25.7112 27.384C25.5397 27.0345 25.4949 26.6499 25.5823 26.2789C25.6697 25.9078 25.8855 25.567 26.2023 25.2995C26.5192 25.032 26.9229 24.8498 27.3624 24.776C27.8019 24.7022 28.2574 24.7401 28.6714 24.8849C29.0854 25.0296 29.4392 25.2748 29.6882 25.5894C29.9371 25.9039 30.07 26.2737 30.07 26.652C30.07 27.1593 29.8313 27.6458 29.4064 28.0045C28.9815 28.3632 28.4053 28.5648 27.8044 28.5648Z" fill="white"/>
</svg>
