<svg width="40" height="40" viewBox="0 0 40 40" fill="none" xmlns="http://www.w3.org/2000/svg">
<rect width="40" height="40" rx="20" transform="matrix(-1 0 0 1 40 0)" fill="#FF725E"/>
<path d="M33 30.5238V33H24.7273V30.5238H27.6345L20 11.4695C19.7755 10.8876 19.4091 10.4171 18.8891 10.0457C18.3691 9.67429 17.8018 9.47619 17.1755 9.47619C16.3364 9.47619 15.6036 9.81048 14.9891 10.4543C14.3745 11.0981 14.0909 11.8533 14.0909 12.7448V16.9048H15.2727C17.8845 16.9048 20 19.121 20 21.8571V33H15.2727C15.9936 31.96 16.4545 30.6848 16.4545 29.2857C16.4545 25.8686 13.8073 23.0952 10.5455 23.0952C9.70636 23.0952 8.90273 23.281 8.18182 23.6152V16.9048H11.7273V12.7448C11.7273 11.7048 11.9991 10.7143 12.4718 9.87238C12.9564 9.00571 13.6064 8.31238 14.4455 7.78C15.2727 7.26 16.1827 7 17.1755 7C18.2864 7 19.2909 7.3219 20.1891 7.95333C21.0873 8.58476 21.7727 9.43905 22.21 10.479L30.2345 30.5238H33ZM14.0909 29.2857C14.0909 31.341 12.5073 33 10.5455 33C8.58364 33 7 31.341 7 29.2857C7 27.2305 8.58364 25.5714 10.5455 25.5714C12.5073 25.5714 14.0909 27.2305 14.0909 29.2857ZM11.7273 29.2857C11.7273 28.6048 11.1955 28.0476 10.5455 28.0476C9.89545 28.0476 9.36364 28.6048 9.36364 29.2857C9.36364 29.9667 9.89545 30.5238 10.5455 30.5238C11.1955 30.5238 11.7273 29.9667 11.7273 29.2857Z" fill="white"/>
</svg>
