<svg width="15" height="21" viewBox="0 0 15 21" fill="none" xmlns="http://www.w3.org/2000/svg">
<path fill-rule="evenodd" clip-rule="evenodd" d="M6.03098 10.8278L0.664975 0.734781C0.634147 0.676802 0.615041 0.613319 0.608747 0.547957C0.602454 0.482594 0.609096 0.416632 0.628294 0.353836C0.667068 0.227015 0.754632 0.12079 0.871725 0.0585306C0.988818 -0.00372901 1.12585 -0.0169235 1.25267 0.0218496C1.31546 0.0410481 1.37386 0.0724271 1.42453 0.114195C1.4752 0.155963 1.51715 0.207302 1.54797 0.265281L6.91448 10.3583L7.67548 9.95328C7.90742 9.82997 8.16138 9.75356 8.42285 9.72841C8.68433 9.70327 8.94819 9.72987 9.19938 9.80672C9.45057 9.88356 9.68417 10.0091 9.88682 10.1763C10.0895 10.3434 10.2572 10.5488 10.3805 10.7808L10.7045 11.3903L14.1395 16.4173L9.77048 18.7398L8.25698 15.7483L7.36497 16.1998L8.88748 19.2098L7.01447 20.2053L4.76698 14.5463L4.44347 13.9373C4.32015 13.7054 4.24371 13.4514 4.21853 13.19C4.19334 12.9285 4.21991 12.6647 4.2967 12.4135C4.3735 12.1623 4.49902 11.9287 4.6661 11.726C4.83318 11.5234 5.03855 11.3556 5.27048 11.2323L6.03098 10.8278ZM8.14447 10.8368L5.73948 12.1153C5.62351 12.1769 5.52083 12.2608 5.43729 12.3622C5.35375 12.4635 5.29099 12.5803 5.25259 12.7059C5.21419 12.8315 5.20091 12.9634 5.2135 13.0941C5.22609 13.2249 5.26431 13.3518 5.32598 13.4678L5.64948 14.0768L9.82098 11.8588L9.49697 11.2503C9.43533 11.1343 9.35144 11.0316 9.2501 10.9481C9.14876 10.8646 9.03196 10.8018 8.90637 10.7634C8.78078 10.725 8.64885 10.7117 8.51812 10.7243C8.3874 10.7369 8.26043 10.7751 8.14447 10.8368Z" fill="#FF725E"/>
<path d="M3.884 15.7069C3.79918 15.6051 3.67737 15.541 3.54535 15.5289C3.41334 15.5168 3.28192 15.5577 3.18 15.6424H3.181L3.1755 15.6464L3.1445 15.6704C3.09958 15.7041 3.05373 15.7364 3.007 15.7674C2.883 15.8499 2.698 15.9624 2.46 16.0754C1.84825 16.3695 1.17874 16.5237 0.5 16.5269C0.367392 16.5269 0.240215 16.5796 0.146447 16.6734C0.0526785 16.7672 0 16.8943 0 17.0269C0 17.1596 0.0526785 17.2867 0.146447 17.3805C0.240215 17.4743 0.367392 17.5269 0.5 17.5269C1.3275 17.5238 2.14391 17.3364 2.89 16.9784C3.1226 16.868 3.34715 16.7414 3.562 16.5994C3.64236 16.5456 3.72075 16.4889 3.797 16.4294L3.812 16.4179L3.817 16.4139L3.8185 16.4119H3.8195L3.82 16.4109C3.92181 16.3261 3.98574 16.2042 3.99774 16.0722C4.00974 15.9402 3.96883 15.8088 3.884 15.7069ZM4.916 18.2494C4.95245 18.3041 4.97778 18.3653 4.99055 18.4298C5.00331 18.4942 5.00327 18.5605 4.9904 18.6249C4.97754 18.6893 4.95212 18.7505 4.91559 18.8051C4.87906 18.8597 4.83214 18.9065 4.7775 18.9429L4.7765 18.9439L4.7745 18.9449L4.7695 18.9479L4.754 18.9579L4.697 18.9944C4.39774 19.1779 4.08674 19.3414 3.766 19.4839C3.175 19.7464 2.3505 20.0269 1.5 20.0269C1.36739 20.0269 1.24021 19.9743 1.14645 19.8805C1.05268 19.7867 1 19.6596 1 19.5269C1 19.3943 1.05268 19.2672 1.14645 19.1734C1.24021 19.0796 1.36739 19.0269 1.5 19.0269C2.149 19.0269 2.825 18.8074 3.3595 18.5699C3.63814 18.4461 3.90838 18.3041 4.1685 18.1449C4.18817 18.1333 4.2025 18.1243 4.2115 18.1179L4.2215 18.1119L4.2225 18.1109C4.27713 18.0745 4.3384 18.0492 4.40282 18.0364C4.46724 18.0236 4.53354 18.0237 4.59794 18.0365C4.66234 18.0494 4.72357 18.0748 4.77815 18.1114C4.83272 18.1479 4.87956 18.1948 4.916 18.2494Z" fill="#FF725E"/>
</svg>
