<svg width="40" height="40" viewBox="0 0 40 40" fill="none" xmlns="http://www.w3.org/2000/svg">
<rect width="40" height="40" rx="20" transform="matrix(-1 0 0 1 40 0)" fill="#FF725E"/>
<path d="M13.5 11C12.07 11 10.9 11.855 10.9 12.9V14.8H9.6C8.17 14.8 7 15.655 7 16.7V28.1H9.6V29.05C9.6 29.5725 10.185 30 10.9 30H12.2C12.915 30 13.5 29.5725 13.5 29.05V28.1H26.5V29.05C26.5 29.5725 27.085 30 27.8 30H29.1C29.815 30 30.4 29.5725 30.4 29.05V28.1H33V16.7C33 16.1961 32.7261 15.7128 32.2385 15.3565C31.7509 15.0002 31.0896 14.8 30.4 14.8H29.1V12.9C29.1 12.3961 28.8261 11.9128 28.3385 11.5565C27.8509 11.2002 27.1896 11 26.5 11H13.5ZM22.6 18.6V16.7H30.4V18.6H22.6ZM22.6 22.4V20.5H30.4V22.4H22.6ZM13.5 12.9H26.5V14.8H13.5V12.9ZM13.5 16.7V20.5H16.1L12.2 26.2V22.4H9.6L13.5 16.7Z" fill="white"/>
</svg>
