<svg width="21" height="21" viewBox="0 0 21 21" fill="none" xmlns="http://www.w3.org/2000/svg">
<path d="M19.4423 13.235L20.8723 11.805L19.4423 10.375L15.8723 13.945L7.30225 5.375L10.8723 1.805L9.44225 0.375L8.01225 1.805L6.58225 0.375L4.44225 2.515L3.01225 1.085L1.58225 2.515L3.01225 3.945L0.872253 6.085L2.30225 7.515L0.872253 8.945L2.30225 10.375L5.87225 6.805L14.4423 15.375L10.8723 18.945L12.3023 20.375L13.7323 18.945L15.1623 20.375L17.3023 18.235L18.7323 19.665L20.1623 18.235L18.7323 16.805L20.8723 14.665L19.4423 13.235Z" fill="#FF725E"/>
</svg>
