<svg width="20" height="17" viewBox="0 0 20 17" fill="none" xmlns="http://www.w3.org/2000/svg">
<path fill-rule="evenodd" clip-rule="evenodd" d="M6.962 15.4691C4.019 13.2141 0 9.4891 0 5.9671C0 0.0830979 5.5 -2.1139 10 2.4301C14.5 -2.1139 20 0.0830979 20 5.9671C20 9.4891 15.98 13.2141 13.038 15.4691C11.706 16.4891 11.04 17.0001 10 17.0001C8.96 17.0001 8.294 16.4901 6.962 15.4691ZM14.5 3.2501C14.6989 3.2501 14.8897 3.32912 15.0303 3.46977C15.171 3.61042 15.25 3.80119 15.25 4.0001V5.2501H16.5C16.6989 5.2501 16.8897 5.32912 17.0303 5.46977C17.171 5.61042 17.25 5.80119 17.25 6.0001C17.25 6.19901 17.171 6.38978 17.0303 6.53043C16.8897 6.67108 16.6989 6.7501 16.5 6.7501H15.25V8.0001C15.25 8.19901 15.171 8.38977 15.0303 8.53043C14.8897 8.67108 14.6989 8.7501 14.5 8.7501C14.3011 8.7501 14.1103 8.67108 13.9697 8.53043C13.829 8.38977 13.75 8.19901 13.75 8.0001V6.7501H12.5C12.3011 6.7501 12.1103 6.67108 11.9697 6.53043C11.829 6.38978 11.75 6.19901 11.75 6.0001C11.75 5.80119 11.829 5.61042 11.9697 5.46977C12.1103 5.32912 12.3011 5.2501 12.5 5.2501H13.75V4.0001C13.75 3.80119 13.829 3.61042 13.9697 3.46977C14.1103 3.32912 14.3011 3.2501 14.5 3.2501Z" fill="#FF725E"/>
</svg>
