<svg width="18" height="18" viewBox="0 0 18 18" fill="none" xmlns="http://www.w3.org/2000/svg">
<path d="M9 15C10.6667 15 12.0833 14.4167 13.25 13.25C14.4167 12.0833 15 10.6667 15 9C15 7.33333 14.4167 5.91667 13.25 4.75C12.0833 3.58333 10.6667 3 9 3C7.33333 3 5.91667 3.58333 4.75 4.75C3.58333 5.91667 3 7.33333 3 9C3 10.6667 3.58333 12.0833 4.75 13.25C5.91667 14.4167 7.33333 15 9 15ZM9 13C8.51667 13 8.05 12.9127 7.6 12.738C7.15 12.5633 6.74167 12.3173 6.375 12H11.625C11.2583 12.3167 10.85 12.5627 10.4 12.738C9.95 12.9133 9.48333 13.0007 9 13ZM5.55 11C5.41667 10.7667 5.30833 10.525 5.225 10.275C5.14167 10.025 5.08333 9.76667 5.05 9.5H12.95C12.9167 9.76667 12.8583 10.025 12.775 10.275C12.6917 10.525 12.5833 10.7667 12.45 11H5.55ZM5.05 8.5C5.08333 8.23333 5.14167 7.975 5.225 7.725C5.30833 7.475 5.41667 7.23333 5.55 7H12.45C12.5833 7.23333 12.6917 7.475 12.775 7.725C12.8583 7.975 12.9167 8.23333 12.95 8.5H5.05ZM6.375 6C6.74167 5.68333 7.15 5.43767 7.6 5.263C8.05 5.08833 8.51667 5.00067 9 5C9.48333 4.99933 9.95 5.08667 10.4 5.262C10.85 5.43733 11.2583 5.68333 11.625 6H6.375ZM2 18C1.45 18 0.979333 17.8043 0.588 17.413C0.196667 17.0217 0.000666667 16.5507 0 16V2C0 1.45 0.196 0.979333 0.588 0.588C0.98 0.196667 1.45067 0.000666667 2 0H16C16.55 0 17.021 0.196 17.413 0.588C17.805 0.98 18.0007 1.45067 18 2V16C18 16.55 17.8043 17.021 17.413 17.413C17.0217 17.805 16.5507 18.0007 16 18H2Z" fill="#FF725E"/>
</svg>
