<svg width="25" height="25" viewBox="0 0 25 25" fill="none" xmlns="http://www.w3.org/2000/svg">
<path d="M18.5389 12.8158V11.1706H17.2833V13.0792C17.2834 13.2479 17.3495 13.4097 17.4673 13.529L19.1667 15.2512V16.2602H5.35556V15.2512L7.05496 13.529C7.1727 13.4097 7.23886 13.2479 7.23889 13.0792V10.5344C7.23726 9.64044 7.46841 8.76188 7.90902 7.98744C8.34964 7.213 8.9841 6.5701 9.74833 6.12366C10.5126 5.67723 11.3795 5.44308 12.2616 5.44485C13.1437 5.44661 14.0097 5.68425 14.7722 6.13374V4.71055C14.1746 4.44244 13.539 4.27153 12.8889 4.20413V2.8999H11.6333V4.20413C10.0856 4.36377 8.65124 5.09934 7.60763 6.26861C6.56402 7.43787 5.98529 8.95776 5.98334 10.5344V12.8158L4.28394 14.538C4.16621 14.6573 4.10004 14.8191 4.10001 14.9878V16.8965C4.10001 17.0652 4.16615 17.227 4.28388 17.3463C4.40161 17.4656 4.56129 17.5327 4.72778 17.5327H9.12223V18.1689C9.12223 19.0125 9.45293 19.8216 10.0416 20.4182C10.6302 21.0148 11.4286 21.3499 12.2611 21.3499C13.0936 21.3499 13.892 21.0148 14.4806 20.4182C15.0693 19.8216 15.4 19.0125 15.4 18.1689V17.5327H19.7944C19.9609 17.5327 20.1206 17.4656 20.2384 17.3463C20.3561 17.227 20.4222 17.0652 20.4222 16.8965V14.9878C20.4222 14.8191 20.356 14.6573 20.2383 14.538L18.5389 12.8158ZM14.1445 18.1689C14.1445 18.6751 13.946 19.1605 13.5928 19.5185C13.2396 19.8764 12.7606 20.0775 12.2611 20.0775C11.7616 20.0775 11.2826 19.8764 10.9294 19.5185C10.5762 19.1605 10.3778 18.6751 10.3778 18.1689V17.5327H14.1445V18.1689Z" fill="black"/>
<path d="M18.5389 9.89825C19.9257 9.89825 21.05 8.75889 21.05 7.35342C21.05 5.94795 19.9257 4.80859 18.5389 4.80859C17.152 4.80859 16.0278 5.94795 16.0278 7.35342C16.0278 8.75889 17.152 9.89825 18.5389 9.89825Z" fill="#FF725E"/>
</svg>
