<svg width="23" height="21" viewBox="0 0 23 21" fill="none" xmlns="http://www.w3.org/2000/svg">
<path d="M8 0C8.685 0 9.3135 0.256 9.771 0.729C10.2285 1.2025 10.5 1.8785 10.5 2.694C10.5 3.5055 10.232 4.32 9.795 4.9365C9.36 5.55 8.73 6 8 6C7.27 6 6.64 5.55 6.205 4.9365C5.768 4.32 5.5 3.5055 5.5 2.6945C5.5 1.8785 5.7715 1.2025 6.2295 0.729C6.6865 0.256 7.315 0 8 0ZM2.5 4.5C3.185 4.5 3.8135 4.756 4.271 5.229C4.7285 5.7025 5 6.3785 5 7.194C5 8.0055 4.732 8.82 4.295 9.4365C3.86 10.05 3.23 10.5 2.5 10.5C1.77 10.5 1.14 10.05 0.705 9.4365C0.268 8.82 0 8.005 0 7.1945C0 6.3785 0.2715 5.7025 0.7295 5.229C1.1865 4.756 1.815 4.5 2.5 4.5ZM11.25 8C7.688 8 4.737 11.0325 3.808 14.835C3.396 16.522 4.0245 18.3315 5.5745 19.189C6.806 19.871 8.649 20.5 11.2495 20.5C13.8505 20.5 15.6935 19.871 16.9255 19.189C18.475 18.3315 19.1035 16.522 18.6915 14.8355C17.763 11.0325 14.8115 8 11.25 8ZM20 4.5C19.315 4.5 18.6865 4.756 18.2295 5.229C17.7715 5.7025 17.5 6.3785 17.5 7.194C17.5 8.0055 17.768 8.82 18.205 9.4365C18.64 10.05 19.27 10.5 20 10.5C20.73 10.5 21.36 10.05 21.795 9.4365C22.232 8.82 22.5 8.0055 22.5 7.1945C22.5 6.3785 22.2285 5.7025 21.771 5.229C21.3135 4.756 20.685 4.5 20 4.5ZM14.5 0C13.815 0 13.1865 0.256 12.7295 0.729C12.2715 1.2025 12 1.8785 12 2.694C12 3.5055 12.268 4.32 12.705 4.9365C13.14 5.55 13.77 6 14.5 6C15.23 6 15.86 5.55 16.295 4.9365C16.732 4.32 17 3.5055 17 2.6945C17 1.8785 16.7285 1.2025 16.271 0.729C15.8135 0.256 15.185 0 14.5 0Z" fill="#FF725E"/>
</svg>
