<svg width="40" height="40" viewBox="0 0 40 40" fill="none" xmlns="http://www.w3.org/2000/svg">
<rect width="40" height="40" rx="20" transform="matrix(-1 0 0 1 40 0)" fill="#FF725E"/>
<path d="M20.9286 8C21.1607 8 21.3929 8.21008 21.8571 8.63025V10.3109H24.6734C25.5714 9.47059 25.5714 9.47059 26.5 10.3109C27.4286 11.1513 27.4286 11.1513 26.5 11.9916C25.5714 12.8319 25.5714 12.8319 24.7142 11.9916H21.8571V13.6723H20V11.9916H17.1735C16.2563 12.8319 16.2565 12.8319 15.328 11.9916C14.3994 11.1513 14.3994 11.1513 15.328 10.3109C16.2565 9.47059 16.2563 9.47059 17.2143 10.3109H20V8.63025C20.4643 8.21008 20.6964 8 20.9286 8ZM33 12.0966V25.542H31.1429V12.0966H33ZM29.2857 14.6176L30.2143 13.7773V23.8613L29.2857 23.021V14.6176ZM20.9286 14.5126C22.7857 14.5126 23.7346 14.5126 23.7857 16.1933H28.3571V21.2353H24.6066C23.7143 22.0756 22.7857 22.916 20.9286 22.916C19.0714 22.916 18.1429 22.0756 17.2143 21.2353C13.5 21.2353 13.5 21.2353 13.5 22.916V24.5966H7.92857V21.2353C7.92857 17.874 9.78572 16.1933 13.5 16.1933H18.1429C18.1225 14.5126 19.0714 14.5126 20.9286 14.5126ZM14.4286 25.437V26.2773H7V25.437H14.4286ZM10.7143 27.1176C10.7143 27.1176 12.9674 29.8309 12.5714 31.4244C12.3265 32.4097 11.8303 33 10.7143 33C9.59826 33 9.10205 32.4097 8.85714 31.4244C8.46117 29.8309 10.7143 27.1176 10.7143 27.1176Z" fill="white"/>
</svg>
