<svg width="24" height="23" viewBox="0 0 24 23" fill="none" xmlns="http://www.w3.org/2000/svg">
<path d="M22.4855 21.198C22.4855 20.201 20.6665 17.4145 20.6665 17.4145C20.6665 17.4145 18.82 20.201 18.82 21.198C18.82 22.193 19.641 23 20.653 23C21.665 23 22.4855 22.193 22.4855 21.198ZM9.333 5.5855H5.6675V1.972H6.667V0H0V1.972H1V7.557C1 9.009 2.194 10.1855 3.6665 10.1855H9.333V11.1715H11.3335V4.6005H9.333V5.5855ZM22.999 13.7995V8.2145C22.999 6.763 21.8055 5.586 20.3345 5.586H14.667V4.601H12.6665V11.1725H14.667V10.186H18.333V13.7995H17.3345V15.7715H24V13.7995H22.999Z" fill="#FF725E"/>
</svg>
