<svg width="22" height="20" viewBox="0 0 22 20" fill="none" xmlns="http://www.w3.org/2000/svg">
<path d="M15.471 8.66406C15.9472 8.66526 16.419 8.57956 16.859 8.41192C17.299 8.24427 17.6984 7.99802 18.0342 7.68741L21.5226 4.4812C21.7985 4.22745 21.8238 3.81454 21.5611 3.5483C21.4951 3.4814 21.4151 3.42754 21.3258 3.38996C21.2365 3.35238 21.1398 3.33188 21.0417 3.3297C20.9435 3.32752 20.8459 3.3437 20.7548 3.37727C20.6636 3.41083 20.5808 3.46108 20.5114 3.52496L17.4023 6.38242C17.2979 6.47832 17.1564 6.53219 17.0088 6.53219C16.8613 6.53219 16.7197 6.47832 16.6153 6.38242C16.3983 6.18326 16.4101 5.8466 16.6267 5.64743L19.7222 2.80039C19.7916 2.73657 19.8462 2.66045 19.8826 2.57665C19.9191 2.49286 19.9367 2.40313 19.9343 2.3129C19.9319 2.22267 19.9097 2.13382 19.8688 2.05175C19.828 1.96967 19.7695 1.89607 19.6969 1.8354C19.5657 1.72597 19.3947 1.66576 19.2176 1.66665C19.1182 1.66669 19.0198 1.68475 18.928 1.71978C18.8362 1.75481 18.7528 1.80613 18.6825 1.87082L15.5897 4.71495C15.4853 4.81084 15.3438 4.86471 15.1962 4.86471C15.0487 4.86471 14.9072 4.81084 14.8028 4.71495C14.5862 4.51578 14.5975 4.17912 14.8141 3.97996L17.9097 1.13374C17.979 1.06992 18.0336 0.993806 18.0701 0.910009C18.1065 0.826213 18.1241 0.736481 18.1217 0.646253C18.1194 0.556025 18.0971 0.467179 18.0563 0.385101C18.0155 0.303023 17.9569 0.229421 17.8843 0.168758C17.7531 0.0593264 17.5821 -0.000886471 17.405 9.86514e-06C17.2043 0.000228376 17.0119 0.0736516 16.87 0.204174L13.3839 3.41038C13.0461 3.71929 12.7784 4.08675 12.5961 4.49149C12.4138 4.89622 12.3207 5.33019 12.322 5.76827V6.11118C12.3221 6.19885 12.3033 6.28567 12.2669 6.36668C12.2304 6.44769 12.1769 6.52128 12.1095 6.58325L10.4963 8.0674C10.4794 8.0829 10.4594 8.09519 10.4374 8.10358C10.4155 8.11196 10.3919 8.11628 10.3681 8.11628C10.3442 8.11628 10.3207 8.11196 10.2987 8.10358C10.2767 8.09519 10.2567 8.0829 10.2398 8.0674L2.38974 0.847082C2.25425 0.72233 2.07054 0.652026 1.87883 0.651557C1.68711 0.651089 1.503 0.720494 1.36679 0.844582C0.680452 1.46999 0.31395 2.35289 0.31395 3.39746C0.30942 5.12244 1.29521 7.10575 2.88671 8.56739L6.75786 12.1278C7.30809 12.6327 8.05362 12.9164 8.83092 12.9165C9.07873 12.9166 9.32553 12.8875 9.56529 12.8298C9.62548 12.8153 9.68744 12.8079 9.74967 12.8078C9.93164 12.8078 10.1069 12.871 10.2403 12.9848L10.7563 13.4232C10.8894 13.5482 10.9642 13.7161 10.9647 13.8911V14.1219C10.9634 14.6466 11.1876 15.1506 11.5885 15.524L15.6681 19.3393L15.6721 19.3435C16.1249 19.7599 16.739 19.9938 17.3793 19.9937C18.0196 19.9937 18.6337 19.7597 19.0864 19.3433C19.5391 18.9269 19.7934 18.3621 19.7934 17.7732C19.7934 17.1843 19.539 16.6195 19.0862 16.2031L12.9712 10.579C12.9543 10.5636 12.941 10.5452 12.9318 10.5249C12.9227 10.5047 12.918 10.483 12.918 10.4611C12.918 10.4392 12.9227 10.4175 12.9318 10.3973C12.941 10.3771 12.9543 10.3587 12.9712 10.3432L14.5844 8.85947C14.6517 8.79751 14.7317 8.74836 14.8197 8.71483C14.9077 8.6813 15.002 8.66405 15.0972 8.66406H15.471Z" fill="#FF725E"/>
<path d="M8.83092 14.2499C7.67041 14.2477 6.55764 13.8247 5.73401 13.0728L5.10611 12.4953C5.03816 12.433 4.94611 12.3979 4.85014 12.3979C4.75418 12.3979 4.66212 12.433 4.59418 12.4953L0.743423 16.0186C0.0570813 16.6498 -0.188008 17.579 0.151765 18.489C0.170823 18.5402 0.193368 18.5903 0.219266 18.639C0.676374 19.4998 1.56341 19.9998 2.5338 19.9998C2.86752 20.0005 3.19808 19.9404 3.50634 19.8228C3.8146 19.7052 4.09443 19.5325 4.32961 19.3148L9.46517 14.569C9.48678 14.5487 9.50333 14.5244 9.51366 14.4976C9.52399 14.4708 9.52785 14.4423 9.52497 14.414V14.4032C9.52295 14.3772 9.51524 14.3519 9.50229 14.3287C9.48934 14.3055 9.47143 14.285 9.44962 14.2684C9.42782 14.2518 9.40259 14.2394 9.37544 14.232C9.34829 14.2246 9.31979 14.2223 9.29166 14.2253C9.13865 14.2409 8.98486 14.2491 8.83092 14.2499Z" fill="#FF725E"/>
</svg>
