<svg width="16" height="16" viewBox="0 0 16 16" fill="none" xmlns="http://www.w3.org/2000/svg">
<path d="M5.33331 11.9997L7.99998 9.96634L10.6666 11.9997L9.66665 8.69967L12.3333 6.79967H9.06665L7.99998 3.33301L6.93331 6.79967H3.66665L6.33331 8.69967L5.33331 11.9997ZM7.99998 14.6663C7.07776 14.6663 6.21109 14.4912 5.39998 14.141C4.58887 13.7908 3.88331 13.3159 3.28331 12.7163C2.68331 12.1168 2.20843 11.4112 1.85865 10.5997C1.50887 9.78812 1.33376 8.92145 1.33331 7.99967C1.33287 7.0779 1.50798 6.21123 1.85865 5.39967C2.20931 4.58812 2.6842 3.88256 3.28331 3.28301C3.88243 2.68345 4.58798 2.20856 5.39998 1.85834C6.21198 1.50812 7.07865 1.33301 7.99998 1.33301C8.92131 1.33301 9.78798 1.50812 10.6 1.85834C11.412 2.20856 12.1175 2.68345 12.7166 3.28301C13.3158 3.88256 13.7909 4.58812 14.142 5.39967C14.4931 6.21123 14.668 7.0779 14.6666 7.99967C14.6653 8.92145 14.4902 9.78812 14.1413 10.5997C13.7924 11.4112 13.3175 12.1168 12.7166 12.7163C12.1158 13.3159 11.4102 13.791 10.6 14.1417C9.78976 14.4923 8.92309 14.6672 7.99998 14.6663Z" fill="#FF725E"/>
</svg>
