<svg width="16" height="16" viewBox="0 0 16 16" fill="none" xmlns="http://www.w3.org/2000/svg">
<path d="M8.00031 1.58301C8.88892 1.58305 9.72195 1.75176 10.5013 2.08789C11.2854 2.4261 11.9637 2.88386 12.5394 3.45996C13.1153 4.03629 13.5733 4.71509 13.9124 5.49902C14.2493 6.2777 14.4176 7.11015 14.4163 7.99902C14.415 8.88847 14.2464 9.72185 13.9114 10.501C13.5747 11.2843 13.1176 11.963 12.5403 12.5391C11.9626 13.1155 11.2829 13.5734 10.5003 13.9121C9.72304 14.2485 8.89064 14.4169 8.00031 14.416C7.11067 14.416 6.27775 14.2472 5.49933 13.9111C4.71595 13.5729 4.03703 13.1154 3.46027 12.5391C2.88369 11.9629 2.42595 11.2846 2.0882 10.501C1.75251 9.72211 1.5838 8.88912 1.58331 8C1.58288 7.11094 1.75169 6.27786 2.0882 5.49902C2.42689 4.71517 2.88442 4.03625 3.46027 3.45996C4.03605 2.88375 4.7151 2.42613 5.49933 2.08789C6.27867 1.7518 7.11168 1.58301 8.00031 1.58301ZM7.76105 3.25977L6.74933 6.5498H2.88507L3.52179 7.00293L6.04132 8.79883L5.09406 11.9268L4.86945 12.668L5.48468 12.1982L7.99933 10.2803L10.515 12.1982L11.1302 12.668L10.9056 11.9268L9.95734 8.79883L12.4788 7.00293L13.1146 6.5498H9.25128L8.23859 3.25977L8.00031 2.4834L7.76105 3.25977Z" stroke="#FF725E" stroke-width="0.5"/>
</svg>
